<svg width="16" height="16" viewBox="0 0 16 16" fill="none" xmlns="http://www.w3.org/2000/svg">
<path d="M13.8547 8.6058L15.2847 7.17588C15.4543 7.00628 15.4543 6.73135 15.2847 6.56177C15.1151 6.39217 14.8401 6.39217 14.6705 6.56177L13.2406 7.99172L11.8106 6.56177C11.6411 6.39217 11.3661 6.39217 11.1965 6.56177C11.0269 6.73137 11.0269 7.0063 11.1965 7.17588L12.6265 8.6058L11.1965 10.0357C11.0269 10.2053 11.0269 10.4803 11.1965 10.6498C11.3661 10.8194 11.6411 10.8194 11.8106 10.6498L13.2406 9.21988L14.6705 10.6498C14.8401 10.8194 15.1151 10.8194 15.2847 10.6498C15.4543 10.4802 15.4543 10.2053 15.2847 10.0357L13.8547 8.6058Z" fill="white"/>
<path d="M9.39122 0.713129C8.92851 0.496393 8.39721 0.564952 8.00467 0.892083L4.33891 3.94686H1.89065C1.17229 3.94686 0.587891 4.53126 0.587891 5.24963V10.75C0.587891 11.4683 1.17229 12.0527 1.89065 12.0527H4.33894L8.0047 15.1075C8.39764 15.435 8.929 15.503 9.39128 15.2865C9.85399 15.0698 10.1414 14.6177 10.1414 14.1067V1.89288C10.1414 1.3819 9.85397 0.929866 9.39122 0.713129ZM4.0619 11.19H1.89065C1.65122 11.19 1.4564 10.9894 1.4564 10.7499V5.24963C1.4564 5.01019 1.65122 4.81537 1.89065 4.81537H4.0619V11.19ZM9.27292 14.1067C9.27292 14.3629 9.08155 14.4725 9.02286 14.4999C8.96421 14.5274 8.75752 14.6043 8.56067 14.4403L4.93041 11.4151V4.58451L8.56067 1.55929C8.75752 1.39524 8.96423 1.47214 9.02286 1.49962C9.08152 1.52709 9.27292 1.63665 9.27292 1.89288V14.1067Z" fill="white"/>
</svg>
