<svg width="17" height="16" viewBox="0 0 17 16" fill="none" xmlns="http://www.w3.org/2000/svg">
<path d="M16.4342 5C16.1944 5 16 5.1944 16 5.43418V11.5127C16 11.7525 16.1944 11.9469 16.4342 11.9469C16.674 11.9469 16.8684 11.7525 16.8684 11.5127V5.43418C16.8684 5.1944 16.674 5 16.4342 5V5Z" fill="white"/>
<path d="M12.4342 7C12.1944 7 12 7.1944 12 7.43418V10.0392C12 10.279 12.1944 10.4734 12.4342 10.4734C12.674 10.4734 12.8684 10.279 12.8684 10.0392V7.43418C12.8684 7.1944 12.674 7 12.4342 7V7Z" fill="white"/>
<path d="M14.4342 6C14.1944 6 14 6.1944 14 6.43418V10.776C14 11.0157 14.1944 11.2101 14.4342 11.2101C14.674 11.2101 14.8684 11.0157 14.8684 10.776V6.43418C14.8684 6.1944 14.674 6 14.4342 6V6Z" fill="white"/>
<path d="M9.39122 0.713129C8.92851 0.496393 8.39721 0.564952 8.00467 0.892083L4.33891 3.94686H1.89065C1.17229 3.94686 0.587891 4.53126 0.587891 5.24963V10.75C0.587891 11.4683 1.17229 12.0527 1.89065 12.0527H4.33894L8.0047 15.1075C8.39764 15.435 8.929 15.503 9.39128 15.2865C9.85399 15.0698 10.1414 14.6177 10.1414 14.1067V1.89288C10.1414 1.3819 9.85397 0.929866 9.39122 0.713129ZM4.0619 11.19H1.89065C1.65122 11.19 1.4564 10.9894 1.4564 10.7499V5.24963C1.4564 5.01019 1.65122 4.81537 1.89065 4.81537H4.0619V11.19ZM9.27292 14.1067C9.27292 14.3629 9.08155 14.4725 9.02286 14.4999C8.96421 14.5274 8.75752 14.6043 8.56067 14.4403L4.93041 11.4151V4.58451L8.56067 1.55929C8.75752 1.39524 8.96423 1.47214 9.02286 1.49962C9.08152 1.52709 9.27292 1.63665 9.27292 1.89288V14.1067Z" fill="white"/>
</svg>
